<?xml version="1.0" encoding="iso-8859-1"?>
<!-- Generator: Adobe Illustrator 19.0.0, SVG Export Plug-In . SVG Version: 6.00 Build 0)  -->
<svg version="1.1" id="Layer_1" xmlns="http://www.w3.org/2000/svg" xmlns:xlink="http://www.w3.org/1999/xlink" x="0px" y="0px"
	 viewBox="0 0 295.238 295.238" style="enable-background:new 0 0 295.238 295.238;" xml:space="preserve">
<g>
	<g>
		<polygon style="fill:#F9BA48;" points="147.619,95.238 100,200 119.048,266.667 176.19,266.667 195.238,200 		"/>
		<path style="fill:#333333;" d="M152.381,172.105V100h-9.524v72.105c-8.195,2.129-14.286,9.524-14.286,18.371
			c0,10.505,8.543,19.048,19.048,19.048s19.048-8.543,19.048-19.048C166.667,181.629,160.576,174.233,152.381,172.105z M147.619,200
			c-5.252,0-9.524-4.271-9.524-9.524c0-5.252,4.271-9.524,9.524-9.524c5.252,0,9.524,4.271,9.524,9.524
			C157.143,195.729,152.871,200,147.619,200z"/>
		<path style="fill:#333333;" d="M197.262,52.381h60.557c2.129,8.19,9.519,14.286,18.371,14.286
			c10.505,0,19.048-8.543,19.048-19.048s-8.543-19.048-19.048-19.048c-8.852,0-16.243,6.095-18.371,14.286h-91.152V28.571h-38.095
			v14.024l-91.157,0.252c-2.133-8.186-9.519-14.276-18.367-14.276C8.543,28.571,0,37.114,0,47.619s8.543,19.048,19.048,19.048
			c8.857,0,16.248-6.1,18.376-14.295l61.014-0.167c-46.9,18.519-80.124,62.61-83.781,114.462H0v38.095h38.095v-38.095H24.2
			C28.543,109.49,71.624,62.6,128.571,53.848v12.819h38.095V53.848c56.948,8.752,100.029,55.643,104.371,112.819h-13.895v38.095
			h38.095v-38.095H280.58C276.938,114.981,243.919,71.009,197.262,52.381z M276.19,38.095c5.252,0,9.524,4.271,9.524,9.524
			s-4.271,9.524-9.524,9.524c-5.252,0-9.524-4.271-9.524-9.524S270.938,38.095,276.19,38.095z M19.048,57.143
			c-5.252,0-9.524-4.271-9.524-9.524s4.271-9.524,9.524-9.524s9.524,4.271,9.524,9.524S24.3,57.143,19.048,57.143z M28.571,176.19
			v19.048H9.524V176.19h4.762h9.524H28.571z M157.143,57.143h-19.048V38.095h19.048V57.143z M285.714,176.19v19.048h-19.048V176.19
			h4.762h9.524H285.714z"/>
	</g>
</g>
<g>
</g>
<g>
</g>
<g>
</g>
<g>
</g>
<g>
</g>
<g>
</g>
<g>
</g>
<g>
</g>
<g>
</g>
<g>
</g>
<g>
</g>
<g>
</g>
<g>
</g>
<g>
</g>
<g>
</g>
</svg>
