<?xml version="1.0" encoding="iso-8859-1"?>
<!-- Generator: Adobe Illustrator 18.0.0, SVG Export Plug-In . SVG Version: 6.00 Build 0)  -->
<!DOCTYPE svg PUBLIC "-//W3C//DTD SVG 1.1//EN" "http://www.w3.org/Graphics/SVG/1.1/DTD/svg11.dtd">
<svg version="1.1" id="Capa_1" xmlns="http://www.w3.org/2000/svg" xmlns:xlink="http://www.w3.org/1999/xlink" x="0px" y="0px"
	 viewBox="0 0 59.998 59.998" style="enable-background:;" xml:space="preserve">
<g>
	<path   d="M59.953,39.894c-0.399-4.089-3.451-7.053-7.271-7.053c-2.396,0-4.407,1.449-5.684,3.213
		c-1.276-1.764-3.288-3.213-5.684-3.213c-3.819,0-6.871,2.963-7.27,7.052c-0.042,0.269-0.145,1.221,0.225,2.709
		c0.545,2.197,1.8,4.191,3.631,5.771l9.098,7.785l9.1-7.787c1.829-1.576,3.084-3.57,3.63-5.769
		C60.097,41.112,59.995,40.161,59.953,39.894z M57.787,42.12c-0.445,1.794-1.48,3.431-2.991,4.732l-7.797,6.672l-7.794-6.67
		c-1.514-1.305-2.549-2.941-2.993-4.735c-0.302-1.213-0.193-1.896-0.194-1.896l0.017-0.106c0.244-2.621,2.137-5.275,5.281-5.275
		c2.189,0,3.974,1.811,4.77,3.605l0.914,2.061l0.914-2.061c0.796-1.795,2.58-3.605,4.77-3.605c3.145,0,5.037,2.654,5.295,5.367
		C57.979,40.215,58.09,40.9,57.787,42.12z"/>
	<path style="fill:#F9BA48;"  d="M31.07,39.504c0.564-5.492,4.971-9.663,10.246-9.663c1.994,0,3.983,0.686,5.684,1.946c0.323-0.24,0.659-0.451,1.001-0.648
		v-3.298h8v2.585c0.702,0.251,1.374,0.573,2,0.971V4.841c0-0.553-0.448-1-1-1H1c-0.552,0-1,0.447-1,1v44c0,0.553,0.448,1,1,1h34.083
		c-1.84-1.85-3.12-4.081-3.725-6.517C30.899,41.466,30.98,40.134,31.07,39.504z M48,5.841h8v9h-8V5.841z M48,16.841h8v9h-8V16.841z
		 M10,47.841H2v-9h8V47.841z M10,36.841H2v-9h8V36.841z M10,25.841H2v-9h8V25.841z M10,14.841H2v-9h8V14.841z M25,34.841
		c-0.166,0-0.331-0.041-0.481-0.123C24.199,34.542,24,34.206,24,33.841v-14c0-0.365,0.199-0.701,0.519-0.877
		c0.32-0.175,0.71-0.162,1.019,0.033l11,7C36.825,26.181,37,26.499,37,26.841s-0.175,0.66-0.463,0.844l-11,7
		C25.374,34.788,25.187,34.841,25,34.841z"/>
</g>
<g>
</g>
<g>
</g>
<g>
</g>
<g>
</g>
<g>
</g>
<g>
</g>
<g>
</g>
<g>
</g>
<g>
</g>
<g>
</g>
<g>
</g>
<g>
</g>
<g>
</g>
<g>
</g>
<g>
</g>
</svg>
